<svg width="1527" height="414" viewBox="0 0 1527 414" fill="none" xmlns="http://www.w3.org/2000/svg">
<path d="M15.6211 79.8435L75.5691 104.995C92.697 74.8132 126.294 60.3511 161.209 65.3814C196.124 70.4117 216.982 96.7241 224.451 111.912C239.602 142.722 244.374 190.124 216.705 236.654L278.63 264.95C309.648 206.561 307.67 146.13 290.262 98.9432C270.905 46.47 224.359 10.1319 164.536 1.48075C84.9139 -10.0336 30.3336 48.4043 15.6211 79.8435Z" fill="white"/>
<path d="M114.216 407.251C172.912 422.887 288.067 414.029 339.646 292.417L278.627 264.905C230.426 362.185 165.565 352.953 126.877 343.301C98.2313 336.155 63.502 310.771 63.502 272.179C63.502 225.663 111.278 187.591 167.738 206.05C167.738 206.05 176.91 146.807 176.373 146.294C130.826 132.55 75.0878 134.804 27.4791 192.905C-3.40702 230.598 -9.13939 288.2 14.785 332.794C33.2773 367.263 69.5132 395.342 114.216 407.251Z" fill="white"/>
<path fill-rule="evenodd" clip-rule="evenodd" d="M435.935 275.731H471.873L489.199 238.36H563.549L580.875 275.731H617.264L546.345 124.05H506.853L435.935 275.731ZM502.503 209.746L520.446 171.353L526.374 157.57L532.302 171.353L550.245 209.746H502.503Z" fill="white"/>
<path d="M627.157 146.155H659.611V118.862H627.157V146.155Z" fill="white"/>
<path d="M627.157 275.731H659.611V161.206H627.157V275.731Z" fill="white"/>
<path d="M682.963 275.731H715.417V211.918C715.417 202.755 717.326 196.552 720.78 192.66C724.114 188.903 729.525 186.599 738.343 186.599C746.162 186.599 750.705 188.273 753.375 190.879C756.063 193.502 757.669 197.861 757.669 205.045V208.011H789.898V200.535C789.898 189.82 786.978 179.457 780.276 171.696C773.477 163.823 763.151 159.058 749.369 159.058C736.984 159.058 727.185 162.792 720.022 169.113C717.437 171.393 715.235 173.975 713.392 176.781V161.206H682.963V275.731Z" fill="white"/>
<path fill-rule="evenodd" clip-rule="evenodd" d="M806.011 275.731H836.44V257.699C839.252 261.987 842.794 265.662 847.043 268.66C855.789 274.832 867.17 277.879 880.518 277.879C899.244 277.879 914.09 271.909 924.215 261.214C934.286 250.574 939.274 235.699 939.274 218.576C939.274 201.261 934.356 186.343 924.497 175.701C914.577 164.994 900.061 159.058 881.868 159.058C867.775 159.058 856.451 162.514 847.983 168.657C844.181 171.417 841.017 174.672 838.465 178.306V124.05H806.011V275.731ZM838.465 219.65V217.932C838.465 207.298 841.647 200.015 847.125 195.322C852.682 190.562 861.275 187.888 873.318 187.888C884.847 187.888 893.032 190.038 898.348 194.534C903.56 198.941 906.82 206.302 906.82 218.576C906.82 230.752 903.612 237.98 898.406 242.299C893.072 246.722 884.777 248.835 872.868 248.835C861.394 248.835 852.876 246.27 847.272 241.626C841.766 237.064 838.465 229.991 838.465 219.65Z" fill="white"/>
<path fill-rule="evenodd" clip-rule="evenodd" d="M1189.52 266.057C1193.02 263.104 1195.93 259.744 1198.27 256.135V275.731H1228.7V161.206H1196.47V217.932C1196.47 228.984 1193.73 236.636 1188.78 241.542C1183.86 246.421 1176.05 249.265 1164.32 249.265C1153.02 249.265 1145.95 246.841 1141.66 242.831C1137.39 238.841 1135.09 232.549 1135.09 223.086V161.206H1102.86V229.315C1102.86 242.406 1106.92 254.59 1115.52 263.543C1124.18 272.552 1137.04 277.879 1153.74 277.879C1169.04 277.879 1180.95 273.294 1189.52 266.057Z" fill="white"/>
<path d="M1251.63 275.731H1284.08V219.006C1284.08 207.917 1286.73 200.259 1291.55 195.361C1296.33 190.511 1303.95 187.673 1315.56 187.673C1326.61 187.673 1333.5 190.088 1337.68 194.077C1341.86 198.064 1344.11 204.367 1344.11 213.851V275.731H1376.56V207.622C1376.56 194.532 1372.51 182.354 1363.97 173.404C1355.38 164.396 1342.63 159.058 1326.13 159.058C1311.04 159.058 1299.25 163.653 1290.76 170.894C1287.27 173.872 1284.38 177.264 1282.06 180.908V161.206H1251.63V275.731Z" fill="white"/>
<path fill-rule="evenodd" clip-rule="evenodd" d="M1494.25 124.05V178.359C1491.67 174.7 1488.48 171.425 1484.64 168.653C1476.15 162.517 1464.83 159.058 1450.85 159.058C1432.87 159.058 1418.36 165.002 1408.4 175.692C1398.48 186.324 1393.44 201.239 1393.44 218.576C1393.44 235.721 1398.55 250.596 1408.71 261.227C1418.91 271.907 1433.8 277.879 1452.42 277.879C1465.67 277.879 1476.99 274.829 1485.71 268.656C1489.94 265.661 1493.47 261.989 1496.28 257.705V275.731H1526.7V124.05H1494.25ZM1426.12 218.576C1426.12 206.32 1429.43 198.949 1434.65 194.534C1439.97 190.031 1448.11 187.888 1459.4 187.888C1471.32 187.888 1479.92 190.558 1485.51 195.328C1491.02 200.028 1494.25 207.316 1494.25 217.932V219.65C1494.25 229.973 1490.91 237.051 1485.37 241.621C1479.73 246.274 1471.2 248.835 1459.85 248.835C1448.18 248.835 1439.93 246.728 1434.59 242.299C1429.37 237.972 1426.12 230.734 1426.12 218.576Z" fill="white"/>
<path fill-rule="evenodd" clip-rule="evenodd" d="M1018.2 277.879C1037.74 277.879 1054.37 271.97 1066.16 261.446C1077.96 250.903 1084.6 235.989 1084.6 218.576C1084.6 200.961 1077.97 185.988 1066.16 175.438C1054.36 164.908 1037.73 159.058 1018.2 159.058C998.775 159.058 982.195 164.912 970.434 175.441C958.65 185.991 952.017 200.961 952.017 218.576C952.017 235.989 958.659 250.901 970.434 261.443C982.188 271.966 998.765 277.879 1018.2 277.879ZM1018.2 249.48C1005.27 249.48 996.95 246.546 991.821 241.673C986.697 236.804 984.021 229.298 984.021 218.576C984.021 207.738 986.702 200.115 991.841 195.166C996.974 190.222 1005.29 187.243 1018.2 187.243C1031.23 187.243 1039.6 190.226 1044.76 195.172C1049.92 200.119 1052.6 207.738 1052.6 218.576C1052.6 229.298 1049.92 236.8 1044.78 241.666C1039.62 246.542 1031.25 249.48 1018.2 249.48Z" fill="white"/>
</svg>
